# xmcd
#
# Track frame offsets:
# 150
# 11887
# 25685
# 38258
# 51821
# 66691
# 85772
# 99021
# 114905
# 130404
# 141944
# 154698
# 167602
# 181341
#
# Disc length: 2667 seconds
#
#
# Revision: 1
# Processed by: cddbd v1.5.1PL0 Copyright (c) Steve Scherf et al.
# Submitted via: FreeRIP 2.52 
#
DISCID=ab0a690e
DTITLE=Patrick Feeney - Thanks To You
DYEAR=2003
DGENRE=Country
TTITLE0=Thanks to you
TTITLE1=Achill Island
TTITLE2=Sweet Memories
TTITLE3=Cook Me Up Some Love
TTITLE4=Easy Parts Over Now
TTITLE5=My Old Home Town Gurteen
TTITLE6=This Moment Is Mine
TTITLE7=Out Of My Mind Over You
TTITLE8=The Road To Malinmore
TTITLE9=Shes Sweet Shes Kind And Shes Mine
TTITLE10=Help Stamp out Loneliness
TTITLE11=Where Is All The Love Gone
TTITLE12=Dreaming Of You
TTITLE13=Home I'll Be
EXTD=Innisfree Records, Gurteen, Co. Sligo, Eire
EXTT0=
EXTT1=
EXTT2=
EXTT3=
EXTT4=
EXTT5=
EXTT6=
EXTT7=
EXTT8=
EXTT9=
EXTT10=
EXTT11=
EXTT12=
EXTT13=
PLAYORDER=
